<svg xmlns="http://www.w3.org/2000/svg" viewBox="0 0 848.09 848.09">
      <circle cx="424.05" cy="424.05" r="424.05" fill="#fff"/>
      <path d="M705.34,193.11A389.92,389.92,0,0,0,498.73,39.43,86,86,0,0,0,431.94,46a88.72,88.72,0,0,0-42.27,50.29c-7.36,22.13-5.64,46.26,4.84,67.95a265.31,265.31,0,0,1,26.54,116.41c0,77.8-33.49,155.39-89.61,207.55-46.32,43.07-103.9,64.44-162.11,60.19-32.92-2.4-56.83,20.4-67.85,41.45a83.8,83.8,0,0,0,15.19,102.38h0a387.18,387.18,0,0,0,266.5,106.23A402.35,402.35,0,0,0,427.55,796c179.86-19.89,323.72-165.07,342.07-345.19a391.26,391.26,0,0,0-10.14-137.54A385.69,385.69,0,0,0,705.34,193.11ZM675.11,441.19c-13.84,135.88-122.35,245.39-258,260.4C340.76,710,265.19,688.9,205.38,643.18c69.55-5,136.06-34.54,190.74-85.38,36.63-34,66.95-77.06,87.66-124.37a383.93,383.93,0,0,0,32.27-152.76,359.43,359.43,0,0,0-30.28-145.33C609.76,181.51,688.73,307.55,675.11,441.19Z" fill="#60b4f1"/>
</svg>
