<svg xmlns="http://www.w3.org/2000/svg" viewBox="0 0 800.73 799.93">
    <path d="M513.38,114.9A377.09,377.09,0,0,1,703.5,260.31a372.55,372.55,0,0,1,52.32,116.13,378.06,378.06,0,0,1,9.81,132.93C747.89,683.45,608.85,823.76,435,843a389.9,389.9,0,0,1-42.89,2.38A374.68,374.68,0,0,1,193,788.05a398.72,398.72,0,0,0,290.88,125.5c220.84,0,399.86-179,399.86-399.86C883.7,302.78,720.42,130,513.38,114.9Z" transform="translate(-83.48 -114.12)" fill="#24292f" />
    <path d="M185.46,603.69c56.27,4.11,111.91-16.55,156.68-58.17,54.23-50.41,86.61-125.4,86.61-200.59A256.4,256.4,0,0,0,403.1,232.42c-10.14-21-11.8-44.29-4.68-65.67a85.69,85.69,0,0,1,40.85-48.6c1.57-.85,3.17-1.62,4.77-2.37C241.89,135.76,84,306.28,84,513.69a398.73,398.73,0,0,0,28.35,148.15,80.46,80.46,0,0,1,7.56-18.09C130.54,623.41,153.65,601.37,185.46,603.69Z" transform="translate(-83.48 -114.12)" fill="#24292f" />
</svg>
